<svg width="20" height="20" viewBox="0 0 20 20" fill="none" xmlns="http://www.w3.org/2000/svg">
<path d="M13.5625 10.375C13.5625 11.2285 13.4883 12.0078 13.4141 12.75H6.54883C6.47461 12.0078 6.40039 11.2285 6.40039 10.375C6.40039 9.55859 6.47461 8.7793 6.54883 8H13.4141C13.4883 8.7793 13.5625 9.55859 13.5625 10.375ZM19.166 8C19.3887 8.7793 19.5 9.55859 19.5 10.375C19.5 11.2285 19.3887 12.0078 19.166 12.75H14.6016C14.6758 12.0078 14.75 11.1914 14.75 10.375C14.75 9.55859 14.6758 8.7793 14.6016 8H19.166ZM18.7949 6.8125H14.4531C14.082 4.47461 13.3398 2.4707 12.4121 1.20898C15.3066 1.98828 17.6816 4.06641 18.7949 6.8125ZM13.2656 6.8125H6.69727C6.91992 5.47656 7.29102 4.28906 7.69922 3.32422C8.10742 2.43359 8.51562 1.80273 8.96094 1.39453C9.36914 1.02344 9.70312 0.875 10 0.875C10.2598 0.875 10.5938 1.02344 11.002 1.39453C11.4473 1.80273 11.8555 2.43359 12.2637 3.32422C12.6719 4.28906 13.043 5.47656 13.2656 6.8125ZM1.16797 6.8125C2.28125 4.06641 4.65625 1.98828 7.55078 1.20898C6.62305 2.4707 5.88086 4.47461 5.50977 6.8125H1.16797ZM5.36133 8C5.28711 8.7793 5.21289 9.55859 5.21289 10.375C5.21289 11.1914 5.28711 12.0078 5.36133 12.75H0.796875C0.574219 12.0078 0.5 11.2285 0.5 10.375C0.5 9.55859 0.574219 8.7793 0.796875 8H5.36133ZM7.69922 17.4629C7.29102 16.498 6.91992 15.3105 6.69727 13.9375H13.2656C13.043 15.3105 12.6719 16.498 12.2637 17.4629C11.8555 18.3535 11.4473 18.9844 11.002 19.3926C10.5938 19.7637 10.2598 19.875 9.96289 19.875C9.70312 19.875 9.36914 19.7637 8.96094 19.3926C8.51562 18.9844 8.10742 18.3535 7.69922 17.4629ZM7.55078 19.5781C4.65625 18.7988 2.28125 16.7207 1.16797 13.9375H5.50977C5.88086 16.3125 6.62305 18.3164 7.55078 19.5781ZM12.4121 19.5781C13.3398 18.3164 14.082 16.3125 14.4531 13.9375H18.7949C17.6816 16.7207 15.3066 18.7988 12.4121 19.5781Z" fill="#9CA3AF"/>
</svg>
