<svg width="13" height="16" viewBox="0 0 13 16" fill="none" xmlns="http://www.w3.org/2000/svg">
<path d="M8.4375 9.3125C7.91016 9.3125 7.5 8.90234 7.5 8.375V6.5C7.5 6.00195 7.91016 5.5625 8.4375 5.5625C8.93555 5.5625 9.375 6.00195 9.375 6.5L9.375 8.375C9.375 8.90234 8.93555 9.3125 8.4375 9.3125ZM6.5625 8.05273C6.32812 7.96484 6.09375 7.90625 5.85937 7.90625H4.6875V5.5625C4.6875 5.06445 5.09766 4.625 5.625 4.625C6.12305 4.625 6.5625 5.06445 6.5625 5.5625V8.05273ZM3.75 7.90625L2.10937 7.90625C2.02148 7.90625 1.93359 7.93555 1.875 7.93555L1.875 1.8125C1.875 1.31445 2.28516 0.875 2.8125 0.875C3.31055 0.875 3.75 1.31445 3.75 1.8125L3.75 7.90625ZM11.25 6.5C11.748 6.5 12.1875 6.93945 12.1875 7.4375V9.3125C12.1875 9.83984 11.748 10.25 11.25 10.25C10.7227 10.25 10.3125 9.83984 10.3125 9.3125V7.4375C10.3125 6.93945 10.7227 6.5 11.25 6.5ZM9.46289 9.92773C9.72656 10.6602 10.4297 11.1875 11.25 11.1875C11.5723 11.1875 11.8945 11.0996 12.1875 10.9531V11.8906C12.1875 14.1172 10.4004 15.875 8.20312 15.875H5.5957C4.74609 15.875 3.92578 15.6113 3.25195 15.1133L2.16797 14.3516C1.40625 13.7656 0.9375 12.8574 0.9375 11.8906L0.9375 10.0156C0.9375 9.37109 1.43555 8.84375 2.10937 8.84375H5.85937C6.50391 8.84375 7.00195 9.37109 7.00195 10.0156C7.00195 10.8652 6.21094 11.1875 5.74219 11.1875L3.7207 11.1875C3.48633 11.1875 3.28125 11.4219 3.28125 11.6562C3.28125 11.9199 3.48633 12.125 3.7207 12.125L5.85937 12.125C6.94336 12.125 7.85156 11.2754 7.93945 10.1914C8.08594 10.2207 8.26172 10.25 8.4375 10.25C8.81836 10.25 9.16992 10.1328 9.46289 9.92773Z" fill="#9CA3AF"/>
</svg>
