<svg width="16" height="15" viewBox="0 0 16 15" fill="none" xmlns="http://www.w3.org/2000/svg">
<path d="M13.8281 4.82617C15.3809 6.37891 15.3809 8.86914 13.8281 10.4219L10.5469 13.7324C10.2832 14.0254 9.84375 14.0254 9.55078 13.7617C9.28711 13.4688 9.28711 13.0293 9.55078 12.7656L12.832 9.42578C13.8281 8.42969 13.8281 6.81836 12.832 5.82227L9.08203 2.01367C8.81836 1.75 8.81836 1.31055 9.11133 1.01758C9.375 0.753906 9.81445 0.753906 10.0781 1.04688L13.8281 4.82617ZM0 6.61328L0 2.21875C0 1.45703 0.615234 0.8125 1.40625 0.8125L5.77148 0.8125C6.26953 0.8125 6.73828 1.01758 7.08984 1.36914L12.0117 6.29102C12.7441 7.02344 12.7441 8.22461 12.0117 8.95703L8.11523 12.8535C7.38281 13.5859 6.18164 13.5859 5.44922 12.8535L0.527344 7.93164C0.175781 7.58008 0 7.11133 0 6.61328ZM3.28125 3.15625C2.75391 3.15625 2.34375 3.5957 2.34375 4.09375C2.34375 4.62109 2.75391 5.03125 3.28125 5.03125C3.7793 5.03125 4.21875 4.62109 4.21875 4.09375C4.21875 3.5957 3.7793 3.15625 3.28125 3.15625Z" fill="#9CA3AF"/>
</svg>
