<svg width="22" height="15" viewBox="0 0 22 15" fill="none" xmlns="http://www.w3.org/2000/svg">
<path d="M20.6855 2.51367C21.1309 4.07227 21.1309 7.41211 21.1309 7.41211C21.1309 7.41211 21.1309 10.7148 20.6855 12.3105C20.4629 13.2012 19.7578 13.8691 18.9043 14.0918C17.3086 14.5 11 14.5 11 14.5C11 14.5 4.6543 14.5 3.05859 14.0918C2.20508 13.8691 1.5 13.2012 1.27734 12.3105C0.832031 10.7148 0.832031 7.41211 0.832031 7.41211C0.832031 7.41211 0.832031 4.07227 1.27734 2.51367C1.5 1.62305 2.20508 0.917969 3.05859 0.695312C4.6543 0.25 11 0.25 11 0.25C11 0.25 17.3086 0.25 18.9043 0.695312C19.7578 0.917969 20.4629 1.62305 20.6855 2.51367ZM8.92188 10.418L14.1914 7.41211L8.92188 4.40625V10.418Z" fill="#9CA3AF"/>
</svg>
