<svg width="144" height="34" viewBox="0 0 144 34" fill="none" xmlns="http://www.w3.org/2000/svg">
<path d="M49.1035 22.5035L53.9085 11.3789H54.0129L58.8179 22.5035H56.8183L53.431 14.0647L54.6844 13.2281L50.8196 22.5035H49.1035ZM52.1178 18.5409H55.8335L56.4304 19.9939H51.5955L52.1178 18.5409ZM60.97 11.8192H68.1774V13.4629H62.7159V16.3101H67.5805V17.9685H62.7159V20.8598H68.3863V22.5035H60.97V11.8192ZM69.986 21.6083C69.986 21.3539 70.0805 21.1435 70.2695 20.9772C70.4585 20.8011 70.6675 20.713 70.8963 20.713C71.1052 20.713 71.3041 20.8011 71.4932 20.9772C71.6822 21.1435 71.7767 21.3539 71.7767 21.6083C71.7767 21.8822 71.6822 22.1024 71.4932 22.2687C71.3041 22.4252 71.1052 22.5035 70.8963 22.5035C70.6675 22.5035 70.4585 22.4252 70.2695 22.2687C70.0805 22.1024 69.986 21.8822 69.986 21.6083ZM79.6248 13.9913C79.2368 13.7956 78.824 13.6293 78.3862 13.4923C77.9485 13.3455 77.5307 13.2721 77.1328 13.2721C76.5956 13.2721 76.1678 13.3896 75.8495 13.6244C75.5411 13.8592 75.3869 14.1821 75.3869 14.593C75.3869 14.8865 75.4963 15.1458 75.7152 15.3708C75.934 15.5861 76.2126 15.7769 76.5508 15.9432C76.889 16.0998 77.2472 16.2514 77.6252 16.3982C77.9535 16.5156 78.2768 16.6575 78.5952 16.8238C78.9235 16.9803 79.2169 17.176 79.4756 17.4108C79.7342 17.6457 79.9382 17.9392 80.0874 18.2914C80.2466 18.6339 80.3261 19.0595 80.3261 19.5683C80.3261 20.126 80.1819 20.6396 79.8934 21.1093C79.6049 21.5691 79.192 21.936 78.6548 22.21C78.1176 22.4839 77.4611 22.6209 76.6851 22.6209C76.2374 22.6209 75.7948 22.572 75.357 22.4742C74.9293 22.3763 74.5214 22.2442 74.1334 22.0779C73.7454 21.9018 73.3873 21.7061 73.059 21.4908L73.835 20.1553C74.0737 20.3314 74.3473 20.4929 74.6557 20.6396C74.9641 20.7864 75.2824 20.9038 75.6107 20.9919C75.939 21.0701 76.2474 21.1093 76.5359 21.1093C76.8443 21.1093 77.1477 21.0603 77.4461 20.9625C77.7545 20.8647 78.0082 20.7032 78.2072 20.4782C78.4161 20.2532 78.5206 19.9547 78.5206 19.5829C78.5206 19.2796 78.431 19.0203 78.2519 18.8051C78.0729 18.5898 77.8391 18.4039 77.5506 18.2474C77.2721 18.0811 76.9637 17.9343 76.6254 17.8071C76.2872 17.6799 75.939 17.538 75.5809 17.3815C75.2327 17.2249 74.9094 17.0342 74.6109 16.8091C74.3125 16.5743 74.0687 16.2906 73.8797 15.9579C73.6907 15.6252 73.5962 15.2143 73.5962 14.7251C73.5962 14.138 73.7355 13.6293 74.014 13.1988C74.2926 12.7683 74.6756 12.4258 75.163 12.1714C75.6604 11.917 76.2325 11.7801 76.8791 11.7605C77.6451 11.7605 78.2967 11.8534 78.8339 12.0393C79.3811 12.2155 79.8636 12.4307 80.2814 12.6851L79.6248 13.9913ZM82.0885 11.8192H89.3556V13.4629H86.5502V22.5035H84.8192V13.4629H82.0885V11.8192ZM93.4294 18.6583C93.4294 19.0791 93.5388 19.4655 93.7577 19.8178C93.9865 20.1602 94.2849 20.4391 94.653 20.6543C95.0211 20.8598 95.434 20.9625 95.8916 20.9625C96.3691 20.9625 96.7969 20.8598 97.1749 20.6543C97.5529 20.4391 97.8514 20.1602 98.0702 19.8178C98.2891 19.4655 98.3985 19.0791 98.3985 18.6583V11.8192H100.115V18.7024C100.115 19.4753 99.9256 20.1602 99.5475 20.757C99.1695 21.3441 98.6621 21.8039 98.0255 22.1366C97.3888 22.4595 96.6775 22.6209 95.8916 22.6209C95.1156 22.6209 94.4093 22.4595 93.7726 22.1366C93.1359 21.8039 92.6286 21.3441 92.2505 20.757C91.8825 20.1602 91.6984 19.4753 91.6984 18.7024V11.8192H93.4294V18.6583ZM103.222 22.5035V11.8192H106.311C107.395 11.8192 108.315 11.9806 109.071 12.3035C109.827 12.6166 110.439 13.0422 110.907 13.5803C111.374 14.1087 111.712 14.7006 111.921 15.3562C112.14 16.0019 112.25 16.6526 112.25 17.3081C112.25 18.1104 112.105 18.8296 111.817 19.4655C111.528 20.1015 111.135 20.6494 110.638 21.1093C110.141 21.5593 109.564 21.9067 108.907 22.1513C108.26 22.3861 107.569 22.5035 106.833 22.5035H103.222ZM104.968 20.8598H106.519C107.096 20.8598 107.624 20.7815 108.101 20.6249C108.579 20.4586 108.992 20.2238 109.34 19.9205C109.698 19.6074 109.971 19.2209 110.161 18.7611C110.359 18.3012 110.459 17.7778 110.459 17.1907C110.459 16.5254 110.345 15.9579 110.116 15.4883C109.897 15.0088 109.603 14.6224 109.235 14.3288C108.877 14.0255 108.484 13.8054 108.056 13.6684C107.629 13.5314 107.206 13.4629 106.788 13.4629H104.968V20.8598ZM114.872 11.8192H116.618V22.5035H114.872V11.8192ZM119.235 17.176C119.235 16.4324 119.379 15.7329 119.668 15.0773C119.956 14.4218 120.354 13.8396 120.862 13.3308C121.369 12.8221 121.956 12.4258 122.622 12.1421C123.299 11.8485 124.02 11.7018 124.786 11.7018C125.542 11.7018 126.253 11.8485 126.92 12.1421C127.596 12.4258 128.188 12.8221 128.696 13.3308C129.213 13.8396 129.616 14.4218 129.904 15.0773C130.203 15.7329 130.352 16.4324 130.352 17.176C130.352 17.9294 130.203 18.6339 129.904 19.2894C129.616 19.945 129.213 20.5271 128.696 21.0359C128.188 21.5349 127.596 21.9262 126.92 22.21C126.253 22.4839 125.542 22.6209 124.786 22.6209C124.01 22.6209 123.289 22.4839 122.622 22.21C121.956 21.9262 121.369 21.5398 120.862 21.0506C120.354 20.5516 119.956 19.9743 119.668 19.3188C119.379 18.6534 119.235 17.9392 119.235 17.176ZM121.026 17.176C121.026 17.7044 121.12 18.1985 121.309 18.6583C121.508 19.1182 121.782 19.5242 122.13 19.8765C122.478 20.2189 122.881 20.488 123.339 20.6837C123.796 20.8793 124.294 20.9772 124.831 20.9772C125.348 20.9772 125.831 20.8793 126.278 20.6837C126.736 20.488 127.134 20.2189 127.472 19.8765C127.81 19.5242 128.074 19.1182 128.263 18.6583C128.462 18.1985 128.561 17.7044 128.561 17.176C128.561 16.6379 128.462 16.1389 128.263 15.679C128.064 15.2192 127.795 14.8132 127.457 14.4609C127.119 14.1087 126.721 13.8347 126.263 13.639C125.806 13.4434 125.313 13.3455 124.786 13.3455C124.259 13.3455 123.766 13.4434 123.309 13.639C122.851 13.8347 122.448 14.1087 122.1 14.4609C121.762 14.8132 121.498 15.2241 121.309 15.6937C121.12 16.1536 121.026 16.6477 121.026 17.176Z" fill="white"/>
<mask id="mask0_1512_34637" style="mask-type:alpha" maskUnits="userSpaceOnUse" x="0" y="0" width="35" height="34">
<path d="M34.57 0H0V34H34.57V0Z" fill="#D9D9D9"/>
</mask>
<g mask="url(#mask0_1512_34637)">
<path d="M0 1.96184V33.2674C0 33.6727 0.334048 34.0012 0.746114 34.0012H11.6891C12.1012 34.0012 12.4352 33.6727 12.4352 33.2674V26.8277C12.4352 26.1492 13.2912 25.8342 13.7442 26.3461L20.2951 33.7491C20.4368 33.9093 20.6421 34.0012 20.8579 34.0012H28.4545C29.0947 34.0012 29.4377 33.2606 29.0174 32.7856L1.30887 1.48004C0.855915 0.968277 0 1.28334 0 1.96184Z" fill="white"/>
<path d="M5.552 1.21562L33.2604 32.5211C33.7135 33.0331 34.5693 32.7178 34.5693 32.0395V24.2158V17.8561C34.5693 17.4508 34.2353 17.1223 33.8232 17.1223H27.8175C27.6036 17.1223 27.4002 17.0321 27.2586 16.8747L25.7184 15.1625C25.2924 14.6888 25.6343 13.9424 26.2773 13.9424H33.8232C34.2353 13.9424 34.5693 13.6139 34.5693 13.2086V8.92806C34.5693 8.52277 34.2353 8.19424 33.8232 8.19424H19.8658C19.648 8.19424 19.4411 8.10063 19.2993 7.938L17.594 5.98116C17.1791 5.50516 17.523 4.76978 18.1605 4.76978H33.8232C34.2353 4.76978 34.5693 4.44126 34.5693 4.03597V0.733813C34.5693 0.32854 34.2353 0 33.8232 0H6.11474C5.47462 0 5.13169 0.74076 5.552 1.21562Z" fill="white"/>
</g>
</svg>
