<svg width="247" height="11" viewBox="0 0 247 11" fill="none" xmlns="http://www.w3.org/2000/svg">
<path id="Vector 49" d="M3 3C7.46296 3 7.46296 8 11.9259 8C16.3889 8 16.3889 3 20.8519 3C25.3148 3 25.3148 8 29.7778 8C34.2407 8 34.2407 3 38.7037 3C43.1667 3 43.1667 8 47.6296 8C52.0926 8 52.0926 3 56.5556 3C61.0185 3 61.0185 8 65.4815 8C69.9444 8 69.9444 3 74.4074 3C78.8704 3 78.8704 8 83.3333 8C87.7963 8 87.7963 3 92.2593 3C96.7222 3 96.7222 8 101.185 8C105.648 8 105.648 3 110.111 3C114.574 3 114.574 8 119.037 8C123.5 8 123.5 3 127.963 3C132.426 3 132.426 8 136.889 8C141.352 8 141.352 3 145.815 3C150.278 3 150.278 8 154.741 8C159.204 8 159.204 3 163.667 3C168.13 3 168.13 8 172.593 8C177.056 8 177.056 3 181.519 3C185.981 3 185.981 8 190.444 8C194.907 8 194.907 3 199.37 3C203.833 3 203.833 8 208.296 8C212.759 8 212.759 3 217.222 3C221.685 3 221.685 8 226.148 8C230.611 8 230.611 3 235.074 3C239.537 3 239.537 8 244 8" stroke="url(#paint0_linear_1509_33313)" stroke-width="5" stroke-linecap="round"/>
<defs>
<linearGradient id="paint0_linear_1509_33313" x1="-11.4999" y1="-74.5003" x2="248.5" y2="21.9997" gradientUnits="userSpaceOnUse">
<stop stop-color="#2FDAFF"/>
<stop offset="1" stop-color="#C92FFF"/>
</linearGradient>
</defs>
</svg>
